<?xml version="1.0" standalone="no"?>
<!DOCTYPE svg PUBLIC "-//W3C//DTD SVG 20010904//EN"
 "http://www.w3.org/TR/2001/REC-SVG-20010904/DTD/svg10.dtd">
<svg version="1.0" xmlns="http://www.w3.org/2000/svg"
 width="275.000000pt" height="183.000000pt" viewBox="0 0 275.000000 183.000000"
 preserveAspectRatio="xMidYMid meet">

<g transform="translate(0.000000,183.000000) scale(0.100000,-0.100000)"
fill="#000000" stroke="none">
<path d="M0 1787 c0 -26 5 -47 11 -47 6 0 8 16 6 40 -5 57 -17 62 -17 7z"/>
<path d="M62 1817 c-7 -8 -6 -17 3 -30 11 -15 13 -16 19 -2 5 13 9 14 28 3 13
-7 25 -13 28 -13 10 -1 60 -53 60 -62 0 -5 -20 -19 -46 -31 -25 -12 -42 -27
-39 -32 4 -6 11 -8 16 -5 9 6 39 -17 39 -29 0 -3 -24 -4 -52 -3 -50 3 -53 5
-56 32 -2 16 -17 41 -33 56 l-29 27 2 -39 c1 -31 5 -39 20 -39 10 0 18 -5 18
-11 0 -6 -9 -9 -20 -6 -17 4 -20 0 -20 -29 0 -19 5 -34 10 -34 6 0 10 -7 10
-15 0 -8 -4 -15 -10 -15 -6 0 -10 -57 -10 -150 0 -136 6 -171 25 -140 8 12 32
2 39 -17 8 -20 -2 -35 -17 -26 -29 18 -47 10 -47 -20 0 -23 3 -27 13 -19 9 8
15 4 24 -14 9 -20 9 -24 -5 -24 -15 -1 -15 -2 1 -14 16 -13 16 -14 -8 -20 -14
-4 -25 -13 -25 -22 0 -8 4 -13 9 -10 12 8 21 -45 11 -64 -4 -8 -11 -57 -15
-108 l-8 -92 27 0 c14 0 26 -5 26 -11 0 -7 -10 -9 -25 -7 -26 5 -35 -6 -13
-15 10 -4 10 -6 1 -6 -17 -1 -17 -48 -1 -54 10 -4 10 -6 1 -6 -19 -1 -16 -38
3 -45 9 -4 25 -4 35 -1 9 3 20 2 23 -3 3 -6 0 -10 -7 -9 -66 2 -67 1 -67 -62
0 -58 0 -58 28 -55 15 2 20 1 12 -3 -34 -15 -40 -32 -40 -113 l0 -82 33 6 c47
8 146 10 154 3 3 -4 -17 -8 -45 -8 -29 -1 -56 -3 -62 -4 -5 -1 -26 -3 -45 -4
-28 -1 -35 -5 -35 -22 0 -15 5 -19 18 -15 68 20 232 31 232 15 0 -6 -17 -10
-42 -9 -24 2 -54 2 -68 1 -23 -2 -24 -3 -7 -15 16 -12 13 -14 -23 -14 -22 0
-50 -4 -61 -7 -15 -5 -19 -4 -15 4 4 6 0 11 -11 11 -28 0 -31 -70 -3 -77 11
-3 20 -12 20 -19 0 -8 10 -14 25 -14 18 0 23 -4 18 -16 -4 -12 -2 -15 8 -12 8
3 13 10 12 16 -1 6 12 9 32 7 20 -2 39 2 45 10 9 11 3 13 -37 12 -40 -2 -49 1
-50 14 -1 13 6 16 37 15 27 -2 36 1 33 11 -5 12 30 11 74 -2 6 -2 13 0 15 5 5
13 59 -1 55 -14 -4 -11 -26 -16 -79 -17 -36 0 -37 -19 -2 -19 20 0 25 -4 20
-16 -3 -8 -2 -12 3 -9 5 3 12 1 16 -5 3 -5 15 -10 26 -10 10 0 19 -4 19 -10 0
-14 -43 -13 -58 2 -14 14 -112 20 -112 7 0 -5 7 -9 16 -9 8 0 12 -5 9 -11 -4
-6 -14 -7 -24 -4 -9 4 -38 9 -65 12 -31 2 -54 10 -62 21 -11 14 -13 4 -13 -60
l0 -78 80 0 c46 0 79 4 79 10 0 6 5 10 11 10 5 0 7 -4 4 -10 -4 -6 15 -10 49
-10 31 0 56 5 56 10 0 6 5 10 11 10 5 0 7 -4 4 -10 -3 -5 1 -10 9 -10 9 0 16
6 16 14 0 18 31 26 102 26 36 0 58 5 61 13 3 6 6 -3 6 -20 l1 -33 53 1 52 2
-37 10 c-68 19 -39 50 60 64 43 6 44 5 33 -15 -16 -29 -14 -32 14 -32 14 0 28
-7 31 -15 5 -13 34 -22 34 -11 0 20 -16 36 -36 36 -13 0 -24 4 -24 9 0 18 18
21 45 9 19 -9 28 -9 37 0 9 9 9 12 0 12 -7 0 -12 5 -12 11 0 8 14 10 39 6 37
-5 72 5 55 15 -17 10 -114 8 -114 -2 0 -5 -5 -10 -10 -10 -6 0 -10 16 -8 38 3
37 3 37 -35 37 -49 0 -57 -11 -15 -19 31 -6 31 -20 0 -22 -29 -1 -52 -15 -52
-31 0 -9 -6 -13 -15 -10 -8 4 -39 0 -69 -8 -30 -8 -81 -14 -113 -13 -59 2 -55
5 30 23 16 3 25 10 21 16 -3 6 -17 9 -30 6 -13 -2 -24 0 -24 4 0 9 31 19 70
21 14 1 28 7 32 12 4 6 25 9 48 8 58 -4 67 6 34 35 -28 24 -28 24 -5 19 32 -7
132 14 125 26 -7 11 55 1 71 -12 6 -4 19 -10 30 -13 11 -2 2 -5 -19 -6 -37 -1
-38 -2 -20 -15 21 -16 23 -14 -32 -31 -9 -3 -15 -8 -12 -10 2 -3 29 1 59 9 30
7 61 14 69 15 40 2 80 14 80 23 0 6 6 8 13 5 7 -3 13 3 13 13 0 19 -9 17 -39
-9 -11 -9 -21 -11 -25 -6 -4 6 -20 12 -37 14 -16 2 -42 9 -57 17 -15 8 -36 14
-48 14 -12 0 -19 4 -16 9 4 5 0 12 -6 14 -7 3 4 6 25 6 72 2 29 16 -47 16 -57
0 -72 3 -63 11 16 16 61 29 54 17 -4 -6 20 -11 58 -11 36 -1 65 3 65 8 0 6 15
9 33 9 17 -1 41 1 52 3 11 3 14 3 8 1 -7 -3 -13 -9 -13 -15 0 -6 -15 -8 -34
-6 -19 2 -32 0 -30 -4 3 -4 12 -8 20 -8 8 0 12 -5 9 -11 -4 -6 -19 -7 -36 -4
-16 4 -29 2 -29 -3 0 -12 44 -24 63 -17 8 4 14 0 14 -9 0 -12 -7 -14 -26 -9
-18 4 -23 2 -16 -5 17 -18 95 -19 95 -1 0 5 -8 9 -18 7 -11 -2 -18 1 -18 7 1
5 9 10 18 10 29 2 32 14 7 24 -23 9 -23 10 -3 10 12 1 24 -6 28 -14 4 -11 20
-15 56 -15 30 0 49 4 45 10 -3 5 -12 7 -20 3 -8 -3 -15 -1 -15 5 0 6 -8 8 -18
5 -22 -5 -26 23 -5 31 8 3 11 1 8 -4 -6 -9 22 -15 53 -11 6 1 12 -8 12 -21 0
-19 2 -20 10 -8 6 9 10 10 10 3 0 -6 17 -17 38 -23 66 -20 69 -23 37 -29 -42
-9 -97 -1 -92 13 6 15 -45 15 -61 -1 -11 -11 -10 -13 5 -13 11 0 23 -4 28 -9
6 -5 44 -11 86 -13 43 -2 75 -6 72 -11 -2 -4 19 -7 46 -7 37 0 51 4 51 14 0 9
-9 13 -25 12 -13 -2 -24 0 -23 3 4 19 -17 41 -40 41 -32 0 -92 21 -92 33 0 4
-4 6 -8 3 -4 -2 -14 -1 -22 5 -12 7 -10 9 8 9 13 0 21 4 17 9 -3 6 -14 8 -25
6 -10 -2 -23 2 -29 8 -10 13 -14 12 110 20 41 2 85 7 96 11 12 4 24 2 28 -4 3
-6 -3 -10 -17 -10 -13 0 -36 -7 -52 -15 -15 -8 -36 -15 -46 -15 -10 0 -21 -7
-24 -16 -10 -25 -7 -27 11 -13 9 8 14 9 10 3 -10 -17 36 -23 51 -7 7 7 12 15
12 18 -1 20 1 25 11 25 5 0 7 -4 4 -10 -5 -8 56 -41 73 -39 4 1 16 1 27 0 17
-1 18 -3 5 -11 -9 -6 -11 -10 -3 -10 7 0 10 -7 6 -16 -4 -12 -2 -15 8 -12 8 3
13 11 11 17 -1 6 3 11 9 11 5 0 7 4 4 10 -10 17 32 11 46 -6 12 -15 11 -16 -8
-10 -22 7 -41 -8 -23 -19 18 -11 11 -24 -12 -23 -52 3 -78 -3 -78 -17 0 -7 -8
-19 -17 -24 -16 -9 -16 -10 -1 -11 9 0 18 5 20 10 2 7 19 8 47 4 27 -4 38 -10
30 -14 -27 -14 -106 -21 -132 -11 -17 7 -27 7 -27 1 0 -6 -19 -10 -42 -10 -23
0 -39 -3 -35 -6 3 -3 66 -7 139 -8 80 -1 142 -7 155 -14 12 -7 49 -12 82 -12
34 0 61 -4 61 -10 0 -5 -7 -10 -16 -10 -9 0 -14 -6 -11 -13 7 -19 -80 -20
-108 -1 -20 13 -25 12 -47 -6 l-26 -20 -6 22 c-5 22 -5 22 -34 -5 -32 -31 -45
-27 -31 10 13 34 11 37 -7 19 -8 -9 -25 -16 -37 -16 -22 -1 -22 -1 2 -14 14
-8 19 -16 13 -20 -16 -10 -38 3 -50 29 -8 18 -22 25 -57 30 -25 4 -58 4 -73 1
-55 -14 -71 -14 -75 -1 -3 7 -29 15 -58 19 -30 4 -56 11 -59 15 -7 11 -50 -5
-50 -19 0 -5 12 -10 26 -10 16 0 23 -4 18 -11 -4 -6 -19 -9 -36 -5 -18 3 -27
2 -23 -4 3 -6 14 -10 23 -10 15 -1 15 -2 -1 -11 -10 -6 -30 -8 -44 -5 -22 6
-24 4 -19 -16 3 -13 3 -18 0 -11 -6 13 -34 6 -34 -8 0 -9 471 -11 588 -2 67 5
73 8 69 25 -4 14 -2 18 10 14 8 -3 18 -6 21 -6 4 0 0 -5 -8 -10 -11 -7 -2 -10
32 -10 26 0 50 -4 53 -10 3 -5 38 -7 83 -4 149 10 162 11 162 2 0 -4 26 -8 58
-7 31 0 50 3 42 6 -8 2 -21 7 -29 9 -11 4 -12 7 -3 16 9 9 15 9 24 0 15 -15
80 -16 95 -1 12 12 107 -6 128 -23 5 -4 41 -8 80 -7 44 1 61 4 45 8 -18 5 -21
9 -12 15 7 4 23 1 37 -8 27 -18 85 -22 85 -6 0 6 -12 10 -27 11 -16 0 -37 4
-47 8 -17 7 -17 8 -3 14 9 3 28 2 44 -2 15 -4 34 -6 41 -3 9 2 12 -3 10 -14
-2 -16 3 -19 32 -18 31 1 35 4 33 27 -2 31 -3 30 32 17 l27 -10 -24 -20 -23
-19 144 -1 c123 0 142 2 137 15 -4 11 2 15 20 15 20 0 25 4 20 16 -3 9 -6 18
-6 20 0 2 -7 4 -15 4 -8 0 -15 4 -15 9 0 5 9 7 20 4 16 -4 20 0 20 20 0 16 -7
27 -17 30 -17 4 -17 5 0 6 12 1 17 10 17 35 0 26 -5 35 -22 40 -38 10 -90 7
-83 -5 4 -6 14 -8 22 -4 16 6 73 -15 73 -26 0 -4 -10 -9 -22 -12 -12 -4 -19
-9 -15 -13 4 -4 -5 -15 -20 -25 -23 -16 -25 -19 -10 -25 14 -5 15 -9 6 -20
-12 -15 -44 -20 -35 -6 2 4 -11 6 -30 4 -18 -2 -31 -8 -28 -13 5 -9 -9 -13
-33 -10 -8 1 -10 -5 -7 -14 8 -21 -2 -19 -26 5 -26 26 -25 30 6 30 14 0 23 4
19 10 -3 5 -17 10 -30 10 -13 0 -26 6 -28 13 -3 7 -6 4 -6 -7 -1 -12 -6 -16
-16 -12 -8 3 -31 -1 -52 -9 -21 -7 -30 -14 -20 -14 10 -1 16 -5 13 -10 -9 -14
-50 -1 -68 23 -16 22 -16 24 5 34 12 6 58 18 102 27 72 16 77 19 60 31 -17 13
-14 14 31 14 59 0 91 15 48 23 -16 2 -76 5 -134 6 -61 1 -113 7 -125 14 -11 7
-33 11 -50 8 -28 -3 -26 -5 25 -22 30 -10 83 -19 118 -19 46 0 62 -4 62 -14 0
-20 -40 -28 -150 -32 -104 -3 -151 9 -81 21 66 11 58 25 -14 25 -59 0 -67 -2
-72 -21 -4 -14 -8 -17 -13 -9 -4 6 -18 10 -31 8 l-24 -4 28 -12 c15 -6 27 -15
27 -19 0 -5 33 -8 73 -8 52 0 74 -4 74 -12 0 -7 -9 -13 -19 -13 -10 0 -18 -4
-18 -10 0 -5 8 -10 17 -10 11 0 13 -3 8 -9 -14 -13 -65 -1 -65 15 0 8 -10 14
-22 14 -21 -1 -22 -2 -6 -14 24 -18 3 -39 -24 -25 -13 7 -17 16 -12 31 5 17 3
20 -11 14 -11 -4 -25 3 -42 22 -18 21 -31 28 -49 24 -13 -2 -24 -8 -24 -13 0
-5 -14 -7 -32 -4 -27 5 -30 4 -18 -10 8 -9 29 -15 57 -15 27 0 42 -4 38 -10
-3 -5 -26 -10 -51 -10 -44 0 -59 -14 -26 -24 9 -3 -10 -3 -43 1 -33 3 -71 6
-84 5 -18 0 -21 2 -10 9 9 7 -3 7 -35 3 -42 -6 -48 -5 -43 9 4 11 2 14 -9 10
-7 -3 -14 -10 -14 -16 0 -10 -131 -5 -213 9 -40 7 -33 24 9 24 12 0 24 7 28
15 5 15 -23 21 -79 17 -20 -2 -20 -2 -1 13 18 14 16 15 -35 16 l-54 2 60 7
c62 8 80 5 70 -11 -4 -5 5 -8 19 -7 27 2 37 18 12 18 -7 0 -16 10 -19 21 -4
14 -11 20 -21 16 -8 -3 -18 -1 -22 5 -4 6 -3 9 2 6 5 -3 18 -2 29 3 14 5 7 8
-27 8 -38 1 -46 -2 -42 -14 5 -11 2 -13 -10 -9 -28 11 -19 34 14 34 20 0 30 5
30 15 0 8 5 15 11 15 5 0 7 -5 3 -12 -4 -6 -3 -8 4 -4 6 3 21 2 35 -3 17 -7
42 -5 78 4 52 14 89 7 89 -15 0 -6 7 -10 15 -10 18 0 19 12 3 28 -9 9 -8 12 6
12 9 0 14 -4 11 -10 -3 -5 4 -10 15 -10 16 0 20 4 16 16 -5 14 -4 15 8 5 8 -7
24 -10 36 -6 12 4 26 1 35 -8 12 -13 11 -15 -10 -19 -13 -3 -29 0 -36 6 -7 7
-10 7 -6 1 3 -6 2 -17 -3 -25 -8 -13 -12 -12 -24 5 -13 16 -17 18 -25 6 -6
-10 -20 -12 -47 -8 -36 6 -37 5 -20 -8 17 -13 88 -22 120 -16 5 1 13 -4 17
-10 11 -19 91 -40 105 -28 8 7 10 2 7 -15 -5 -22 -8 -24 -32 -15 -25 10 -25 9
-8 -8 14 -15 21 -16 37 -5 11 6 27 12 35 12 9 0 13 5 10 10 -3 6 1 10 9 10 8
0 18 5 22 11 4 8 -3 9 -23 5 -25 -6 -29 -4 -29 14 0 19 5 21 51 20 27 -2 64
-2 80 0 29 1 29 2 -10 14 -22 7 -41 8 -43 4 -2 -4 -8 -8 -13 -8 -6 0 -7 5 -4
11 4 6 -3 13 -16 17 l-24 6 25 7 25 7 -25 1 c-23 2 -24 3 -7 15 17 13 17 14 0
18 -10 2 -29 1 -43 -3 -14 -4 -18 -8 -10 -9 8 -1 3 -5 -13 -10 -15 -5 -42 -4
-62 1 -20 6 -45 7 -55 4 -11 -4 -20 -2 -20 3 0 4 -42 7 -94 6 -74 -2 -96 0
-100 12 -4 10 3 14 27 15 18 0 46 3 62 5 23 3 26 2 15 -6 -19 -12 -9 -13 24 0
17 6 27 6 32 -1 3 -6 12 -8 19 -5 7 2 16 2 19 -2 4 -3 14 -7 22 -8 9 -1 13 1
9 4 -4 4 -10 7 -13 8 -4 0 -18 5 -32 11 -14 6 -32 13 -40 16 -12 4 -11 6 3 6
10 1 33 -5 51 -13 25 -10 45 -12 73 -6 21 5 58 8 83 6 25 -2 68 -4 95 -5 38
-2 45 -4 30 -11 -18 -8 -17 -9 8 -9 15 -1 27 2 27 7 0 4 26 8 58 8 50 2 53 1
25 -7 -38 -11 -40 -15 -13 -22 11 -3 18 -1 14 4 -3 5 5 9 18 9 23 -1 23 -1 3
-16 -20 -15 -80 -15 -118 1 -12 5 -23 2 -32 -11 -13 -17 -16 -17 -25 -4 -8 13
-10 13 -10 -2 0 -20 59 -43 74 -28 7 7 0 10 -20 11 -17 1 -22 3 -11 6 9 2 15
9 12 14 -8 11 0 12 23 0 56 -28 187 -56 154 -33 -7 5 -24 7 -38 4 -13 -2 -24
0 -24 6 0 11 47 22 96 22 27 0 32 4 31 20 -1 22 -17 25 -50 9 -19 -9 -20 -8
-6 3 9 7 14 18 12 24 -4 13 93 19 101 6 3 -6 -15 -8 -42 -6 l-47 3 45 -11 c35
-9 40 -13 22 -16 -27 -4 -24 -25 4 -31 10 -2 16 0 12 4 -9 9 21 34 41 35 7 0
11 -6 8 -14 -4 -10 -1 -14 11 -10 9 2 4 -2 -11 -9 l-28 -13 39 -12 c50 -15 75
-15 90 0 7 7 12 8 12 3 0 -6 29 -10 64 -10 52 0 63 3 59 15 -3 9 -2 11 4 5 13
-17 63 -17 63 -1 0 8 -8 17 -17 19 -17 4 -17 5 0 6 9 0 17 6 17 12 0 7 -10 9
-25 7 -13 -3 -22 -1 -19 3 3 5 13 9 24 9 16 0 18 10 19 99 l1 98 -54 7 c-30 3
-62 3 -72 -1 -12 -4 -15 -3 -10 5 4 7 28 12 54 13 38 1 42 2 22 9 l-25 8 28 1
c18 1 27 -4 27 -15 0 -9 6 -14 13 -12 8 3 13 34 15 96 2 77 0 92 -13 92 -8 0
-15 -4 -15 -10 0 -5 -4 -10 -10 -10 -22 0 -8 20 18 27 l27 6 -29 8 c-27 8 -66
-6 -66 -23 0 -5 -9 -8 -20 -8 -12 0 -20 7 -20 17 0 9 3 14 6 10 3 -3 24 7 47
23 32 22 43 25 45 14 2 -8 10 -14 18 -14 11 0 14 15 14 60 0 33 -3 59 -7 59
-5 -1 -10 -1 -13 1 -20 7 -60 7 -60 -1 0 -5 5 -9 10 -9 6 0 10 -8 10 -17 0
-14 -5 -12 -26 10 -14 15 -30 25 -36 21 -6 -4 -14 0 -19 7 -13 21 -11 29 6 23
8 -4 15 -2 15 3 0 5 12 23 28 40 22 24 33 30 59 27 l33 -4 -1 164 c-1 137 -3
164 -15 159 -8 -3 -14 1 -14 11 0 9 7 16 14 16 12 0 15 16 13 85 -2 71 -5 87
-22 99 -20 16 -20 16 3 22 21 6 31 23 15 25 -5 0 -35 2 -68 4 -51 3 -96 9
-115 14 -3 1 2 6 10 11 8 5 26 6 40 3 23 -6 24 -5 8 10 -20 20 -39 22 -56 5
-9 -9 -12 -8 -12 5 0 9 5 17 10 17 6 0 10 5 10 11 0 5 -4 8 -9 4 -5 -3 -13 -1
-16 5 -5 8 -11 7 -21 -1 -10 -8 -14 -8 -14 0 0 6 -5 11 -11 11 -6 0 -8 -7 -5
-15 8 -20 14 -42 9 -32 -8 13 -41 7 -47 -9 -11 -28 -20 -6 -22 55 -2 51 1 63
22 86 29 31 29 35 6 35 -10 0 -23 5 -30 12 -9 9 -13 7 -18 -5 -4 -10 -17 -17
-34 -17 -17 0 -30 -7 -34 -17 -8 -20 3 -103 13 -103 4 0 6 -13 3 -30 -5 -33
-22 -41 -22 -10 0 14 -5 18 -17 13 -11 -4 -14 -3 -9 5 7 12 -4 16 -37 12 -16
-1 -17 2 -7 20 6 11 15 18 21 15 5 -4 9 -1 9 4 0 6 -6 11 -14 11 -8 0 -16 7
-20 15 -3 8 -10 15 -15 15 -6 0 -8 -6 -5 -14 3 -8 1 -17 -5 -21 -6 -3 -12 -18
-12 -33 -1 -17 -3 -21 -6 -9 -2 9 -11 17 -18 17 -7 0 -16 6 -19 13 -4 8 -5 7
-4 -3 1 -8 -2 -23 -6 -32 -12 -27 -3 -39 39 -54 52 -18 55 -18 55 5 0 21 15
35 28 27 13 -8 1 -66 -13 -66 -7 0 -18 -7 -25 -15 -10 -12 -6 -17 27 -32 21
-10 41 -22 45 -27 4 -6 13 -4 22 3 15 12 20 8 17 -11 0 -5 5 -8 11 -9 32 -2
52 -9 66 -23 14 -13 13 -14 -5 -10 -12 3 -24 1 -27 -5 -10 -16 -43 -13 -50 4
-6 18 -37 20 -53 4 -8 -8 -13 -6 -17 9 -8 25 -53 56 -61 42 -8 -14 -35 -13
-35 1 0 6 7 8 16 5 8 -3 13 -2 10 3 -3 5 -24 11 -46 15 -23 4 -54 16 -70 27
-36 27 -54 17 -47 -27 6 -37 -6 -45 -22 -16 -9 15 -12 15 -20 2 -6 -8 -13 -11
-17 -8 -3 4 6 18 20 31 28 26 33 49 14 65 -14 11 -138 13 -138 2 0 -4 14 -13
32 -21 35 -15 57 -44 44 -56 -4 -4 -16 3 -27 16 -11 14 -30 24 -45 24 -21 0
-30 8 -46 46 -14 30 -23 40 -25 29 -4 -15 -6 -15 -24 3 -11 11 -25 17 -31 13
-6 -4 -8 -3 -4 4 3 6 0 17 -7 24 -8 7 -12 20 -10 29 3 11 -3 20 -16 24 -12 3
-21 11 -21 17 0 7 4 7 13 -1 16 -13 27 -5 27 21 0 22 9 23 24 2 10 -13 20 -14
56 -7 24 4 46 15 48 23 4 12 2 13 -9 4 -23 -19 -76 -27 -85 -13 -4 7 -2 15 4
17 7 2 10 8 6 13 -3 5 -164 9 -379 9 -329 0 -374 -2 -369 -15 4 -10 0 -15 -10
-15 -9 0 -19 7 -22 15 -5 13 -68 15 -479 15 -366 0 -475 -3 -483 -13z m698 -7
c0 -6 -7 -13 -15 -16 -20 -8 -48 3 -40 16 8 13 55 13 55 0z m-250 -15 c0 -8
-4 -15 -10 -15 -5 0 -10 7 -10 15 0 8 5 15 10 15 6 0 10 -7 10 -15z m-300 -5
c0 -5 -4 -10 -10 -10 -5 0 -10 5 -10 10 0 6 5 10 10 10 6 0 10 -4 10 -10z
m1250 -11 c0 -5 -4 -9 -10 -9 -5 0 -10 7 -10 16 0 8 5 12 10 9 6 -3 10 -10 10
-16z m55 11 c5 -8 12 -7 22 1 12 11 13 9 7 -15 -6 -26 -6 -26 22 -14 16 7 32
17 36 23 4 5 8 1 8 -11 0 -22 -31 -64 -46 -64 -5 0 -16 -9 -24 -20 -16 -22
-40 -10 -40 21 0 10 -4 21 -10 24 -16 10 -12 28 5 21 17 -6 21 9 5 19 -13 8
-13 25 -1 25 6 0 13 -5 16 -10z m881 -25 c4 -26 -7 -75 -16 -75 -13 0 -20 43
-9 56 7 8 6 13 -2 16 -7 2 -9 10 -5 17 11 17 29 9 32 -14z m-2111 -15 c-3 -5
-12 -10 -18 -10 -7 0 -6 4 3 10 19 12 23 12 15 0z m225 -25 c0 -33 -12 -46
-25 -25 -8 12 5 60 16 60 5 0 9 -16 9 -35z m545 17 c0 -18 -20 -15 -23 4 -3
10 1 15 10 12 7 -3 13 -10 13 -16z m371 4 c18 -19 18 -30 -1 -22 -9 3 -15 0
-15 -10 0 -22 -34 -13 -38 10 -6 32 29 46 54 22z m-816 -17 c0 -5 -4 -9 -10
-9 -5 0 -10 7 -10 16 0 8 5 12 10 9 6 -3 10 -10 10 -16z m1050 -4 c0 -14 -4
-25 -10 -25 -5 0 -10 11 -10 25 0 14 5 25 10 25 6 0 10 -11 10 -25z m50 5 c0
-5 -9 -10 -20 -10 -11 0 -20 5 -20 10 0 6 9 10 20 10 11 0 20 -4 20 -10z
m-220 -10 c0 -5 -5 -10 -11 -10 -5 0 -7 5 -4 10 3 6 8 10 11 10 2 0 4 -4 4
-10z m200 -30 c0 -5 -4 -10 -10 -10 -5 0 -10 5 -10 10 0 6 5 10 10 10 6 0 10
-4 10 -10z m712 -32 c-6 -6 -16 -7 -23 -3 -9 6 -7 12 7 22 21 15 34 -1 16 -19z
m-1597 1 c11 -17 -1 -21 -15 -4 -8 9 -8 15 -2 15 6 0 14 -5 17 -11z m535 -10
c0 -12 4 -17 11 -14 6 4 5 -2 -3 -14 -14 -23 -58 -29 -58 -8 0 6 3 22 6 35 8
29 44 30 44 1z m-710 -9 c0 -5 -7 -10 -15 -10 -8 0 -15 5 -15 10 0 6 7 10 15
10 8 0 15 -4 15 -10z m895 -20 c0 -20 -18 -22 -40 -5 -17 12 -17 14 -2 9 10
-4 17 -1 17 6 0 6 6 10 13 8 6 -3 12 -11 12 -18z m264 -4 c-12 -11 -49 -16
-49 -7 0 6 7 11 15 11 8 0 15 5 15 12 0 9 3 9 12 0 6 -6 10 -13 7 -16z m-1444
-27 c5 -31 3 -45 -11 -60 -16 -17 -16 -22 -4 -31 13 -8 12 -9 -1 -5 -22 7 -38
-10 -32 -34 7 -24 19 -24 32 -2 16 30 22 8 15 -59 -6 -63 -7 -65 -33 -61 l-26
4 28 -18 c32 -21 34 -29 6 -36 -22 -6 -17 -30 4 -25 7 2 13 -2 15 -7 6 -18
-41 -21 -75 -6 -36 17 -41 26 -18 35 8 3 15 1 15 -4 0 -6 5 -10 10 -10 21 0 9
20 -15 26 -14 3 -22 10 -19 15 3 5 1 9 -5 9 -5 0 -13 -4 -16 -10 -9 -14 -25
-12 -22 3 1 7 -6 11 -19 9 -20 -3 -21 0 -14 40 9 49 5 62 -9 27 -14 -33 -13
-9 0 29 10 28 14 31 37 25 25 -6 25 -5 11 10 -23 23 -17 84 14 122 21 27 30
31 61 27 28 -3 36 -1 36 12 0 35 28 15 35 -25z m-295 21 c0 -5 15 -16 33 -24
l32 -14 -30 -1 c-32 -1 -55 14 -55 36 0 7 5 13 10 13 6 0 10 -4 10 -10z m1600
-5 c0 -8 -4 -15 -10 -15 -5 0 -10 7 -10 15 0 8 5 15 10 15 6 0 10 -7 10 -15z
m897 9 c-3 -3 -12 -4 -19 -1 -8 3 -5 6 6 6 11 1 17 -2 13 -5z m-1166 -15 c22
-11 15 -34 -7 -25 -8 3 -14 -1 -14 -8 0 -19 50 -27 57 -10 8 21 23 17 23 -6 0
-26 -36 -46 -56 -29 -8 6 -14 7 -14 3 0 -5 -13 -15 -30 -22 -22 -10 -34 -10
-50 -2 -11 6 -20 14 -20 17 0 12 33 43 45 43 6 0 17 11 23 25 13 28 16 29 43
14z m-851 -9 c0 -5 -5 -10 -11 -10 -5 0 -7 5 -4 10 3 6 8 10 11 10 2 0 4 -4 4
-10z m1308 -7 c-3 -19 -48 -26 -48 -8 0 6 4 10 9 10 5 0 13 3 17 8 13 13 26 7
22 -10z m688 -22 c-10 -16 -23 -14 -30 5 -9 25 4 38 21 21 9 -8 12 -20 9 -26z
m-1702 8 c19 -15 24 -24 16 -29 -13 -8 -78 -5 -110 5 -23 7 -25 2 -9 -27 9
-16 13 -18 20 -7 6 10 11 11 20 2 13 -13 3 -37 -12 -28 -5 4 -9 -1 -9 -10 0
-9 -5 -13 -10 -10 -6 4 -23 9 -38 11 -27 5 -56 24 -36 24 5 0 3 4 -4 9 -10 6
-5 12 17 21 20 8 30 19 29 29 -2 12 5 16 29 17 18 0 36 3 39 7 12 12 30 8 58
-14z m883 0 c-4 -15 -2 -19 9 -15 8 3 14 1 14 -4 0 -6 -7 -10 -15 -10 -9 0
-18 -7 -21 -15 -9 -22 -61 -19 -87 5 l-22 21 23 6 c12 3 22 9 22 14 0 5 9 9
20 9 11 0 20 -4 20 -10 0 -5 5 -10 10 -10 6 0 9 3 9 8 -3 15 1 22 12 22 7 0 9
-9 6 -21z m-727 -33 c0 -19 -4 -37 -9 -41 -13 -7 -24 30 -16 55 10 32 25 23
25 -14z m-880 14 c0 -5 -5 -10 -11 -10 -5 0 -7 5 -4 10 3 6 8 10 11 10 2 0 4
-4 4 -10z m1070 -10 c0 -11 -4 -20 -10 -20 -5 0 -10 9 -10 20 0 11 5 20 10 20
6 0 10 -9 10 -20z m315 10 c3 -5 1 -10 -4 -10 -6 0 -11 5 -11 10 0 6 2 10 4
10 3 0 8 -4 11 -10z m982 -34 c-26 -28 -37 -32 -37 -16 0 16 54 63 58 52 2 -6
-8 -22 -21 -36z m-931 -1 c-4 -11 0 -15 12 -13 13 2 16 -3 14 -23 -5 -39 25
-46 33 -8 10 44 41 39 48 -8 8 -46 -4 -60 -37 -45 -18 8 -24 8 -22 -1 4 -26
18 -37 47 -37 18 0 28 4 24 10 -11 19 10 10 28 -11 14 -16 16 -24 6 -35 -14
-17 -36 -18 -41 -2 -3 8 -19 12 -44 9 -21 -1 -36 0 -32 5 4 4 -5 18 -20 31
-20 17 -34 22 -54 17 -17 -3 -28 -1 -28 5 0 6 8 11 18 11 10 0 19 7 19 16 0
13 -8 15 -37 10 -35 -5 -37 -5 -37 24 0 34 1 34 26 18 23 -14 51 -4 58 22 3
11 10 20 15 20 6 0 7 -7 4 -15z m269 -1 c17 -13 18 -16 5 -24 -13 -9 -13 -11
0 -19 8 -6 11 -14 6 -18 -4 -4 -16 2 -26 15 -10 12 -25 22 -33 22 -8 0 -21 8
-28 17 -9 11 -10 14 -2 9 7 -4 21 -2 30 3 23 13 24 13 48 -5z m862 3 c-7 -23
-35 -31 -51 -14 -22 21 -21 22 19 23 21 1 34 -3 32 -9z m-137 -5 c0 -5 -7 -17
-15 -28 -14 -19 -14 -19 -15 2 0 11 3 24 7 27 9 10 23 9 23 -1z m50 -2 c0 -13
-11 -13 -30 0 -12 8 -11 10 8 10 12 0 22 -4 22 -10z m-652 -22 c22 -2 12 -16
-15 -21 -33 -6 -43 -1 -43 20 0 11 6 14 23 8 12 -3 28 -7 35 -7z m107 2 c3 -5
1 -10 -4 -10 -6 0 -11 5 -11 10 0 6 2 10 4 10 3 0 8 -4 11 -10z m-975 -62 c0
-5 -7 -7 -16 -4 -9 3 -18 6 -20 6 -2 0 -4 6 -4 14 0 8 -5 16 -12 18 -6 2 -8 9
-5 15 8 13 57 -30 57 -49z m-970 27 c12 -18 12 -19 -3 -7 -13 12 -18 10 -29
-7 -9 -15 -15 -17 -25 -9 -15 12 -18 42 -3 33 6 -3 10 -2 10 4 0 17 37 8 50
-14z m1265 14 c10 -15 -1 -23 -20 -15 -9 3 -13 10 -10 16 8 13 22 13 30 -1z
m375 3 c0 -13 -12 -22 -22 -16 -10 6 -1 24 13 24 5 0 9 -4 9 -8z m31 -15 c-1
-12 -15 -9 -19 4 -3 6 1 10 8 8 6 -3 11 -8 11 -12z m469 9 c0 -3 -4 -8 -10
-11 -5 -3 -10 -1 -10 4 0 6 5 11 10 11 6 0 10 -2 10 -4z m-175 -16 c3 -6 16
-7 29 -4 17 4 27 -1 39 -19 17 -27 14 -39 -9 -30 -8 3 -14 0 -14 -6 0 -6 8
-11 18 -11 21 0 81 -70 87 -102 5 -26 7 -28 34 -33 30 -5 42 -15 36 -26 -4 -5
-15 -4 -28 3 -12 7 -30 11 -40 9 -18 -2 -60 26 -108 73 -16 16 -33 26 -37 22
-3 -4 0 -11 7 -15 10 -7 10 -13 2 -29 -12 -23 0 -38 24 -28 8 3 17 1 20 -4 4
-6 15 -10 27 -10 11 0 22 -8 25 -20 3 -11 9 -20 14 -20 14 0 73 -59 66 -66 -4
-4 -14 -1 -23 7 -15 12 -16 11 -10 -18 4 -18 4 -38 -1 -45 -4 -7 -8 -37 -8
-67 0 -35 -4 -56 -13 -59 -10 -3 -12 9 -9 48 4 44 1 55 -20 76 -13 13 -30 24
-38 24 -8 0 -15 5 -15 11 0 5 -4 7 -10 4 -16 -10 -24 44 -9 62 10 12 10 15 2
9 -8 -4 -13 -2 -13 6 -1 8 -7 5 -17 -7 -15 -19 -15 -19 -10 11 6 31 5 31 -18
20 -32 -14 -36 -26 -19 -57 7 -13 13 -18 14 -11 0 6 5 12 10 12 6 0 10 -16 10
-35 0 -24 -6 -37 -20 -45 -20 -11 -28 -50 -10 -50 6 0 10 9 10 19 0 24 13 33
34 25 21 -8 21 -36 0 -32 -25 4 -29 -22 -5 -29 12 -3 21 -13 21 -24 0 -10 5
-21 10 -24 6 -4 10 -12 9 -18 -1 -7 -1 -32 0 -56 1 -35 4 -42 17 -37 9 3 12 2
9 -4 -4 -6 6 -10 24 -8 17 1 33 8 35 15 3 7 15 13 26 13 21 0 24 20 21 183 0
31 3 57 8 57 12 0 19 -70 17 -168 0 -45 1 -82 4 -83 44 -7 46 -5 49 34 1 24
-3 43 -11 48 -10 7 -10 9 0 9 6 0 12 5 12 11 0 5 -4 8 -9 5 -11 -7 -20 60 -9
77 5 7 8 2 8 -15 0 -16 5 -28 10 -28 14 0 9 132 -5 142 -6 5 -3 14 8 25 16 16
17 16 17 -10 0 -17 5 -27 14 -27 11 0 15 -14 14 -57 -1 -32 2 -66 7 -76 4 -10
5 -45 3 -78 -4 -57 -3 -60 16 -55 64 18 66 18 66 2 0 -22 -34 -38 -49 -23 -9
9 -16 9 -32 -1 -11 -7 -43 -15 -69 -17 -27 -1 -53 -6 -58 -9 -6 -3 -12 0 -15
6 -4 10 -7 11 -18 1 -7 -7 -23 -13 -36 -13 -13 0 -23 -6 -23 -14 0 -9 -17 -15
-47 -19 -27 -3 -50 -3 -52 -1 -9 8 7 15 43 18 54 5 56 16 3 16 -34 0 -47 4
-47 14 0 8 6 16 14 19 17 7 17 48 1 60 -7 6 -6 10 3 14 17 7 15 30 -4 37 -25
10 -34 7 -34 -9 0 -8 5 -15 10 -15 6 0 10 -8 10 -17 0 -13 -3 -15 -8 -5 -6 8
-49 14 -145 16 -149 5 -247 15 -245 25 3 11 -14 165 -22 204 -7 34 -6 37 14
38 28 1 -50 27 -85 28 -18 1 -28 -5 -32 -18 -4 -15 -12 -19 -33 -17 -41 3 -72
-20 -80 -60 -3 -19 -11 -34 -16 -34 -5 0 -6 -9 -3 -20 4 -11 2 -20 -4 -20 -6
0 -11 5 -11 12 0 6 -3 8 -7 5 -3 -4 0 -18 7 -32 7 -14 10 -28 7 -32 -4 -3 -7
1 -7 10 0 9 -4 17 -10 17 -5 0 -10 -13 -10 -28 0 -16 -7 -52 -15 -80 -12 -40
-21 -53 -40 -58 -14 -3 -25 -10 -25 -15 0 -5 -20 -9 -45 -9 -31 0 -47 5 -54
18 -9 15 -10 14 -11 -6 0 -22 -3 -23 -65 -20 -36 2 -65 8 -65 13 0 6 -4 5 -8
-2 -4 -7 -25 -13 -47 -14 -22 -2 -42 -6 -45 -10 -3 -3 -29 -9 -59 -11 -49 -5
-53 -4 -35 9 10 8 32 13 48 11 17 -2 31 2 33 10 3 6 0 12 -6 12 -6 0 -8 7 -5
15 7 18 -50 75 -76 75 -11 0 -22 5 -25 10 -4 6 -11 8 -16 5 -5 -4 -9 -1 -9 4
0 6 -7 11 -15 11 -9 0 -15 9 -15 25 0 30 25 95 37 95 4 0 91 9 192 19 176 18
200 25 201 54 0 5 9 40 21 78 19 64 23 69 54 75 20 3 32 11 29 18 -2 6 5 17
17 24 18 12 21 11 26 -7 4 -16 11 -19 27 -15 31 7 176 10 176 3 0 -5 185 -29
228 -29 13 0 20 4 17 10 -3 6 2 10 13 10 25 0 42 38 30 69 -5 16 -5 28 2 35 7
7 10 5 10 -7 0 -21 19 -22 26 -2 13 33 76 28 67 -6 -6 -21 -28 -26 -39 -8 -4
8 -9 7 -15 -2 -13 -21 -11 -26 11 -32 28 -7 26 -37 -2 -37 -21 0 -21 -2 7 -20
l30 -20 -30 -1 c-24 -1 -25 -3 -7 -6 14 -3 22 -12 22 -25 0 -12 3 -18 8 -14 4
4 7 13 7 19 0 6 11 17 25 24 14 7 18 13 10 13 -8 0 -23 18 -32 40 -17 40 -13
50 11 28 10 -11 12 -9 9 9 -4 28 1 30 30 12 29 -18 28 -35 -3 -43 -32 -8 -22
-28 11 -22 16 3 24 0 24 -10 0 -20 8 -18 34 11 13 13 26 22 29 18 13 -12 7 26
-6 39 -18 19 -38 68 -27 68 5 0 12 -5 15 -10z m-335 -19 c0 -12 -20 -25 -27
-18 -7 7 6 27 18 27 5 0 9 -4 9 -9z m514 1 c2 -4 0 -14 -5 -22 -8 -13 -10 -13
-18 0 -10 15 -6 30 9 30 5 0 11 -4 14 -8z m204 -9 c-4 -22 -22 -20 -26 1 -2
10 3 16 13 16 10 0 15 -7 13 -17z m57 7 c3 -5 1 -10 -4 -10 -6 0 -11 5 -11 10
0 6 2 10 4 10 3 0 8 -4 11 -10z m-745 -26 c0 -8 -4 -14 -10 -14 -5 0 -10 9
-10 21 0 11 5 17 10 14 6 -3 10 -13 10 -21z m855 16 c-3 -5 1 -10 9 -10 23 0
20 -19 -6 -41 -23 -21 -48 -25 -48 -8 0 6 7 9 15 5 8 -3 15 -1 15 4 0 6 -9 10
-19 10 -11 0 -23 5 -26 10 -3 6 5 10 18 10 14 0 27 7 31 15 3 8 8 15 11 15 4
0 3 -4 0 -10z m-2495 -10 c0 -5 -5 -10 -11 -10 -6 0 -8 -9 -4 -20 5 -15 3 -18
-9 -14 -19 7 -19 9 -4 34 14 21 28 26 28 10z m890 -15 c0 -8 -4 -15 -10 -15
-5 0 -10 7 -10 15 0 8 5 15 10 15 6 0 10 -7 10 -15z m808 -5 c7 -12 8 -20 2
-20 -5 0 -10 5 -10 10 0 6 -7 10 -15 10 -8 0 -15 5 -15 10 0 17 25 11 38 -10z
m502 6 c0 -8 -4 -17 -9 -21 -12 -7 -24 12 -16 25 9 15 25 12 25 -4z m97 -2
c-3 -3 -12 -4 -19 -1 -8 3 -5 6 6 6 11 1 17 -2 13 -5z m-1781 -38 c3 -21 0
-26 -15 -26 -25 0 -31 20 -12 42 18 21 20 19 27 -16z m237 21 c4 3 7 1 7 -5 0
-14 -36 -16 -44 -3 -9 13 6 22 19 11 7 -5 15 -7 18 -3z m1649 -9 c-7 -7 -12
-8 -12 -2 0 6 3 14 7 17 3 4 9 5 12 2 2 -3 -1 -11 -7 -17z m188 12 c0 -5 -5
-10 -11 -10 -5 0 -7 5 -4 10 3 6 8 10 11 10 2 0 4 -4 4 -10z m-260 -10 c0 -5
-5 -10 -11 -10 -5 0 -7 5 -4 10 3 6 8 10 11 10 2 0 4 -4 4 -10z m-1704 -11 c8
-14 -18 -31 -30 -19 -9 9 0 30 14 30 5 0 12 -5 16 -11z m1918 2 c3 -5 -1 -11
-9 -15 -15 -6 -29 7 -18 18 9 9 21 8 27 -3z m-1840 -22 c-3 -5 -10 -7 -15 -3
-5 3 -7 10 -3 15 3 5 10 7 15 3 5 -3 7 -10 3 -15z m1704 -1 c-6 -18 -28 -21
-28 -4 0 9 7 16 16 16 9 0 14 -5 12 -12z m-1958 -8 c0 -5 -10 -10 -22 -10 -19
0 -20 2 -8 10 19 13 30 13 30 0z m-520 -21 c0 -5 -7 -9 -15 -9 -15 0 -20 12
-9 23 8 8 24 -1 24 -14z m105 -9 c3 -5 2 -10 -4 -10 -5 0 -13 5 -16 10 -3 6
-2 10 4 10 5 0 13 -4 16 -10z m41 -20 c8 0 14 -9 14 -20 0 -10 9 -24 20 -30
14 -7 20 -7 20 0 0 5 7 10 15 10 8 0 15 -4 15 -9 0 -13 49 -20 54 -7 2 6 5 1
5 -11 1 -12 6 -25 11 -28 6 -4 8 -10 5 -15 -3 -5 0 -12 6 -16 8 -4 9 -38 5
-107 -6 -115 -21 -142 -78 -144 -18 -1 -40 -3 -48 -5 -8 -1 -15 4 -15 12 0 8
6 14 13 12 9 -2 12 4 8 16 -8 24 24 26 41 3 15 -19 16 -11 4 22 -8 19 -15 23
-35 20 -23 -5 -26 -2 -27 23 -1 40 -5 66 -14 87 -4 10 -3 17 4 17 6 0 11 6 11
14 0 8 11 17 25 20 21 5 24 10 16 25 -7 12 -6 22 1 29 14 14 4 15 -20 3 -9 -5
-28 -14 -42 -20 -17 -7 -19 -10 -6 -8 26 3 32 -20 7 -28 -15 -4 -28 1 -46 21
-25 27 -34 64 -15 64 6 0 10 -8 10 -18 0 -26 11 -34 27 -21 20 17 17 61 -4 57
-10 -2 -18 3 -17 10 4 47 6 57 11 40 2 -10 11 -18 19 -18z m624 9 c0 -5 -7 -9
-15 -9 -15 0 -20 12 -9 23 8 8 24 -1 24 -14z m1650 10 c0 -5 4 -8 9 -4 13 7
24 -12 15 -26 -5 -8 -10 -6 -16 5 -5 9 -16 16 -23 16 -8 0 -15 5 -15 10 0 6 7
10 15 10 8 0 15 -5 15 -11z m-2368 -41 c-9 -9 -15 -9 -24 0 -10 10 -10 15 2
22 20 12 38 -6 22 -22z m668 28 c0 -3 -4 -8 -10 -11 -5 -3 -10 -1 -10 4 0 6 5
11 10 11 6 0 10 -2 10 -4z m290 -16 c0 -5 -2 -10 -4 -10 -3 0 -8 5 -11 10 -3
6 -1 10 4 10 6 0 11 -4 11 -10z m-389 -43 c-8 -8 -11 -7 -11 4 0 20 13 34 18
19 3 -7 -1 -17 -7 -23z m59 13 c0 -5 -7 -10 -16 -10 -8 0 -12 5 -9 10 3 6 10
10 16 10 5 0 9 -4 9 -10z m110 0 c0 -5 -4 -10 -10 -10 -5 0 -10 5 -10 10 0 6
5 10 10 10 6 0 10 -4 10 -10z m1690 -14 c0 -3 -4 -8 -10 -11 -5 -3 -10 -1 -10
4 0 6 5 11 10 11 6 0 10 -2 10 -4z m105 -6 c3 -5 -1 -10 -9 -10 -9 0 -16 5
-16 10 0 6 4 10 9 10 6 0 13 -4 16 -10z m-1975 -44 c0 -28 -13 -11 -16 21 -2
21 -1 24 6 13 5 -8 10 -24 10 -34z m-539 1 c-13 -13 -26 -3 -16 12 3 6 11 8
17 5 6 -4 6 -10 -1 -17z m2488 7 c2 -2 -4 -13 -14 -23 -12 -14 -16 -31 -13
-55 3 -26 -1 -38 -15 -48 -17 -12 -53 -68 -45 -71 2 -1 12 -7 23 -13 11 -6 29
-8 39 -4 16 5 15 8 -12 19 -18 8 -32 15 -32 17 0 11 66 62 73 57 5 -3 6 -21 2
-39 -4 -24 -2 -34 6 -34 7 0 2 -11 -11 -25 -13 -14 -35 -25 -49 -25 -19 0 -22
-3 -12 -9 7 -5 22 -6 33 -3 17 4 19 1 14 -16 -4 -13 -2 -22 6 -25 7 -2 0 -2
-17 1 -16 2 -31 8 -33 13 -2 4 -17 5 -34 2 l-31 -6 5 41 c3 22 3 44 0 47 -4 3
-5 22 -3 41 1 19 -2 34 -8 34 -6 0 -11 -4 -11 -10 0 -5 -7 -10 -15 -10 -10 0
-14 9 -14 28 2 47 10 62 30 62 11 0 17 5 14 10 -3 6 -1 10 4 10 6 0 11 8 11
18 0 10 3 13 8 7 4 -6 22 -8 42 -4 23 4 27 7 12 8 -14 0 -20 5 -16 12 5 9 52
5 63 -7z m-2039 -4 c0 -5 -4 -10 -10 -10 -5 0 -10 5 -10 10 0 6 5 10 10 10 6
0 10 -4 10 -10z m2125 0 c3 -5 -1 -10 -10 -10 -9 0 -13 5 -10 10 3 6 8 10 10
10 2 0 7 -4 10 -10z m-1967 -12 c-3 -7 -15 -14 -29 -16 -23 -2 -23 -2 -5 13
24 18 39 20 34 3z m352 8 c0 -11 -19 -15 -25 -6 -3 5 1 10 9 10 9 0 16 -2 16
-4z m1390 -6 c0 -5 -4 -10 -10 -10 -5 0 -10 5 -10 10 0 6 5 10 10 10 6 0 10
-4 10 -10z m-1850 -34 c0 -3 -4 -8 -10 -11 -5 -3 -10 -1 -10 4 0 6 5 11 10 11
6 0 10 -2 10 -4z m-435 -16 c3 -5 0 -10 -7 -11 -7 0 -4 -4 8 -9 17 -7 21 -18
22 -74 2 -58 0 -67 -21 -78 -12 -7 -28 -11 -34 -10 -7 2 -13 -2 -13 -8 0 -5
-9 -10 -20 -10 -11 0 -20 5 -20 11 0 8 -4 8 -14 0 -12 -10 -15 -4 -18 35 -2
25 0 48 4 50 5 3 8 14 8 25 0 10 5 19 10 19 6 0 10 -5 10 -11 0 -8 5 -8 15 1
8 7 15 19 15 27 0 13 -2 13 -17 2 -10 -8 -14 -9 -10 -2 4 6 0 16 -8 20 -11 7
-5 9 22 10 21 1 39 6 41 12 5 14 19 14 27 1z m385 -5 c0 -8 -4 -15 -10 -15 -5
0 -10 7 -10 15 0 8 5 15 10 15 6 0 10 -7 10 -15z m2175 -21 c0 -22 -4 -29 -18
-27 -11 0 -16 -4 -13 -12 3 -9 -2 -11 -15 -8 -10 3 -19 10 -20 17 0 6 -5 -2
-10 -19 -5 -16 -7 -36 -4 -42 6 -16 -11 -17 -21 -1 -4 6 -8 24 -9 39 -3 31 38
74 61 65 8 -3 17 1 21 10 9 24 28 10 28 -22z m-615 -45 c0 -17 -5 -29 -11 -27
-6 2 -10 7 -10 11 1 4 1 16 1 27 0 11 5 20 10 20 6 0 10 -14 10 -31z m-743
-91 c-3 -8 -6 -5 -6 6 -1 11 2 17 5 13 3 -3 4 -12 1 -19z m1063 -13 c0 -14 -4
-25 -10 -25 -5 0 -10 11 -10 25 0 14 5 25 10 25 6 0 10 -11 10 -25z m-1073
-67 c-3 -8 -6 -5 -6 6 -1 11 2 17 5 13 3 -3 4 -12 1 -19z m-1198 -28 c4 0 12
5 19 12 8 8 15 8 27 -2 13 -11 18 -11 24 -1 6 10 10 9 14 -3 4 -9 2 -16 -3
-16 -6 0 -10 -12 -10 -26 0 -14 4 -23 9 -19 5 3 12 1 16 -5 3 -5 -3 -10 -14
-10 -11 0 -26 -7 -35 -15 -8 -8 -19 -15 -25 -15 -15 0 -14 17 2 23 6 3 2 6
-10 6 -13 1 -23 6 -23 12 0 5 8 9 18 8 40 -4 50 1 45 21 -6 22 -23 27 -23 8 0
-9 -3 -8 -10 2 -13 21 -66 1 -62 -24 3 -15 0 -16 -18 -6 -11 6 -25 8 -30 5 -6
-3 -10 1 -10 9 0 9 -4 16 -10 16 -5 0 -10 -5 -10 -11 0 -5 -4 -8 -9 -4 -13 8
-9 45 4 45 7 0 15 -3 18 -6 4 -4 21 -8 38 -9 21 -2 27 0 18 6 -10 6 -8 10 11
17 19 7 26 6 28 -4 2 -8 7 -14 11 -14z m604 24 c20 -4 37 -11 37 -17 0 -12
-79 -2 -93 12 -13 13 -1 14 56 5z m-405 -11 c-31 -8 -20 -26 12 -20 16 4 31 3
34 -1 3 -4 76 -7 163 -6 161 2 193 0 193 -16 0 -5 -8 -7 -17 -4 -14 5 -15 4
-4 -4 7 -5 21 -7 31 -5 10 3 21 0 24 -6 4 -6 18 -11 31 -11 35 0 40 -18 8 -26
-15 -4 -34 -11 -41 -17 -9 -7 -16 -7 -24 1 -7 7 -22 12 -35 12 -12 0 -26 7
-31 16 -12 21 -47 14 -45 -10 1 -16 -7 -17 -73 -14 -61 4 -78 9 -99 28 -14 13
-25 18 -25 11 0 -7 -6 -11 -12 -8 -7 2 -13 9 -13 15 0 17 -13 25 -26 16 -7 -4
-28 -8 -47 -10 -42 -4 -56 -14 -19 -14 15 0 27 -4 27 -9 0 -14 -46 -22 -72
-12 -15 7 -18 10 -6 10 20 1 13 37 -9 45 -11 4 -13 2 -9 -9 3 -8 1 -15 -3 -15
-13 0 -22 28 -11 35 4 3 15 2 23 -1 10 -3 18 2 22 15 5 16 14 21 38 20 18 -1
24 -3 15 -6z m532 -11 c0 -4 -18 -6 -40 -4 -22 2 -40 6 -40 8 0 2 18 4 40 4
22 0 40 -3 40 -8z m1580 -11 c0 -11 -31 -24 -39 -16 -3 3 1 10 9 15 19 12 30
12 30 1z m-75 -40 c7 -35 24 -40 118 -37 37 1 67 -1 67 -6 0 -4 -5 -8 -11 -8
-5 0 -7 -5 -4 -10 8 -13 -25 -26 -34 -13 -8 13 -68 33 -76 25 -11 -11 -75 -7
-75 4 0 6 -15 19 -32 28 l-33 17 33 -5 c23 -4 32 -2 32 8 0 8 -6 17 -12 19 -8
4 -7 6 4 6 10 1 19 -10 23 -28z m45 -2 c0 -17 -17 -17 -27 1 -10 15 -9 17 8
13 10 -3 19 -9 19 -14z m65 -10 c-7 -11 -35 -12 -35 -1 0 4 9 8 20 9 11 1 18
-2 15 -8z m35 1 c0 -5 -5 -10 -11 -10 -5 0 -7 5 -4 10 3 6 8 10 11 10 2 0 4
-4 4 -10z m-2447 -27 c-7 -2 -13 -14 -13 -26 0 -18 -2 -19 -10 -7 -16 25 -11
40 13 39 12 0 16 -3 10 -6z m2087 -3 c-19 -13 -30 -13 -30 0 0 6 10 10 23 10
18 0 19 -2 7 -10z m90 0 c0 -5 -5 -10 -11 -10 -8 0 -7 -5 1 -15 11 -14 8 -15
-25 -13 -44 4 -62 28 -21 28 14 0 26 5 26 10 0 6 7 10 15 10 8 0 15 -4 15 -10z
m-2044 -15 c-11 -8 -25 -15 -30 -15 -6 1 0 7 14 15 32 19 40 18 16 0z m154 0
c0 -8 -7 -15 -15 -15 -8 0 -15 7 -15 15 0 8 7 15 15 15 8 0 15 -7 15 -15z
m104 9 c23 -9 20 -33 -4 -31 -11 1 -20 7 -20 13 0 9 -11 11 -35 7 -23 -4 -35
-2 -35 6 0 12 67 15 94 5z m1643 -15 c-14 -8 -22 -8 -30 0 -8 8 -3 11 19 11
25 -1 27 -2 11 -11z m-1419 -14 c-2 -5 -10 -9 -18 -8 -8 2 -30 5 -49 8 -57 8
-49 16 12 13 32 -2 56 -7 55 -13z m1672 1 c0 -2 -13 -6 -29 -8 -17 -2 -28 -1
-25 4 5 8 54 12 54 4z m65 -6 c-3 -5 -11 -10 -16 -10 -6 0 -7 5 -4 10 3 6 11
10 16 10 6 0 7 -4 4 -10z m-2271 -10 c-12 -5 -25 -13 -29 -19 -8 -13 -35 -15
-35 -2 0 5 8 12 18 15 9 3 5 4 -10 2 -15 -2 -25 1 -22 5 3 5 26 9 52 8 37 0
42 -2 26 -9z m68 -2 c-9 -9 -15 -9 -24 0 -9 9 -7 12 12 12 19 0 21 -3 12 -12z
m2018 -11 l65 -13 -115 0 c-107 0 -116 2 -116 19 0 17 6 19 51 14 27 -4 79
-12 115 -20z m-2200 -3 c0 -2 -9 -4 -21 -4 -11 0 -18 4 -14 10 5 8 35 3 35 -6z
m2543 2 c33 -1 17 -16 -17 -16 -19 0 -38 -4 -41 -10 -3 -5 -14 -10 -23 -9 -11
0 -12 2 -4 6 18 7 4 23 -21 24 -21 0 -21 1 -2 9 11 5 36 6 55 3 19 -3 43 -6
53 -7z m-1857 -5 c-3 -5 1 -11 9 -15 8 -3 15 -10 15 -16 0 -7 -12 -4 -30 6
-21 13 -26 20 -17 26 16 10 29 10 23 -1z m1334 -6 c0 -8 -7 -15 -15 -15 -26 0
-18 20 13 29 1 1 2 -6 2 -14z m321 -21 c-46 -14 -58 -13 -46 5 3 6 25 11 48
10 l42 -1 -44 -14z m-2161 2 c0 -11 -19 -15 -25 -6 -3 5 1 10 9 10 9 0 16 -2
16 -4z m2020 -11 c0 -8 8 -15 17 -15 22 0 14 -6 -17 -13 -22 -5 -26 -3 -28 18
-1 16 3 25 13 25 8 0 15 -7 15 -15z m-1810 -15 c30 -24 40 -25 40 -5 0 9 6 12
15 9 8 -4 15 -1 15 5 0 6 6 11 12 11 7 0 0 -12 -15 -26 -27 -25 -29 -25 -62
-10 -19 9 -37 21 -40 26 -10 16 8 11 35 -10z m1707 14 c-3 -3 -12 -4 -19 -1
-8 3 -5 6 6 6 11 1 17 -2 13 -5z m63 -10 c0 -2 -7 -4 -15 -4 -8 0 -15 4 -15
10 0 5 7 7 15 4 8 -4 15 -8 15 -10z m253 9 c-7 -2 -21 -2 -30 0 -10 3 -4 5 12
5 17 0 24 -2 18 -5z m-2366 -9 c-3 -3 -12 -4 -19 -1 -8 3 -5 6 6 6 11 1 17 -2
13 -5z m282 -9 c-1 -5 -5 -9 -10 -7 -5 1 -9 -2 -9 -8 0 -5 -4 -10 -10 -10 -5
0 -7 7 -3 16 4 12 0 14 -20 9 -13 -4 -27 -3 -30 2 -3 5 14 9 39 9 24 -1 44 -5
43 -11z m201 5 c0 -5 -8 -10 -17 -10 -15 0 -16 2 -3 10 19 12 20 12 20 0z
m100 1 c0 -5 -7 -11 -14 -14 -10 -4 -13 -1 -9 9 6 15 23 19 23 5z m1088 2
c-10 -2 -28 -2 -40 0 -13 2 -5 4 17 4 22 1 32 -1 23 -4z m259 1 c-3 -3 -12 -4
-19 -1 -8 3 -5 6 6 6 11 1 17 -2 13 -5z m643 -4 c0 -5 -10 -10 -22 -9 -22 0
-22 1 -3 9 11 5 21 9 23 9 1 1 2 -3 2 -9z m-1923 -6 c-3 -3 -12 -4 -19 -1 -8
3 -5 6 6 6 11 1 17 -2 13 -5z m-587 -8 c0 -2 -8 -10 -17 -17 -16 -13 -17 -12
-4 4 13 16 21 21 21 13z m1963 -3 c-7 -2 -21 -2 -30 0 -10 3 -4 5 12 5 17 0
24 -2 18 -5z m70 0 c-7 -2 -13 -11 -13 -19 0 -8 -6 -15 -12 -16 -35 -4 -68 -5
-68 -1 0 5 83 42 95 42 6 -1 4 -3 -2 -6z m-1748 -24 c0 -10 -16 -15 -58 -16
-32 -1 -55 2 -52 6 3 5 15 7 27 3 15 -4 19 -2 13 7 -7 13 7 11 53 -6 14 -6 16
13 2 20 -6 3 -5 4 2 3 7 -2 13 -9 13 -17z m177 7 c-3 -5 2 -7 11 -3 9 3 19 2
21 -2 3 -5 -26 -8 -64 -9 -63 0 -80 5 -65 20 9 9 103 3 97 -6z m85 -1 c0 -11
-4 -12 -14 -4 -7 6 -13 13 -13 15 0 2 6 4 13 4 8 0 14 -7 14 -15z m-443 -4
c18 -7 18 -8 3 -14 -9 -3 -17 -2 -17 3 0 5 -8 11 -17 13 -12 3 -13 5 -3 5 8 0
24 -3 34 -7z m2219 2 c-7 -2 -21 -2 -30 0 -10 3 -4 5 12 5 17 0 24 -2 18 -5z
m-1637 -22 c0 -13 -9 -21 -31 -24 -16 -3 -39 -8 -50 -12 -20 -7 -20 -6 -1 9
19 16 19 16 -6 16 -15 0 -29 4 -32 9 -4 5 10 7 31 4 28 -3 83 7 88 16 1 1 1
-8 1 -18z m1483 0 c10 -7 7 -9 -12 -8 -14 1 -23 5 -20 10 6 9 15 9 32 -2z
m294 2 c-7 -2 -21 -2 -30 0 -10 3 -4 5 12 5 17 0 24 -2 18 -5z m-2463 -13 c0
-5 -2 -10 -4 -10 -3 0 -8 5 -11 10 -3 6 -1 10 4 10 6 0 11 -4 11 -10z m550 2
c0 -4 -21 -6 -47 -4 -83 5 -90 9 -20 11 37 0 67 -2 67 -7z m-483 -8 c-3 -3
-12 -4 -19 -1 -8 3 -5 6 6 6 11 1 17 -2 13 -5z m2033 -4 c-8 -5 -11 -10 -7
-10 5 0 5 -5 2 -10 -5 -8 -12 -7 -22 2 -13 11 -13 13 4 19 27 11 40 10 23 -1z
m229 -13 c-13 -12 -31 -23 -39 -23 -8 -1 -23 -4 -32 -9 -11 -4 -18 -3 -18 4 0
6 8 11 18 11 9 1 33 9 52 20 46 25 48 25 19 -3z m-2409 1 c0 -4 -4 -8 -9 -8
-6 0 -12 4 -15 8 -3 5 1 9 9 9 8 0 15 -4 15 -9z m235 2 c7 -12 -2 -12 -30 0
-19 8 -19 9 2 9 12 1 25 -3 28 -9z m95 6 c0 -2 -13 -6 -30 -8 -16 -3 -30 -1
-30 4 0 4 14 8 30 8 17 0 30 -2 30 -4z m64 -9 c-8 -21 22 -40 51 -33 16 4 25
2 25 -5 0 -6 7 -8 16 -5 9 4 12 2 8 -5 -4 -6 -20 -8 -39 -5 -21 4 -35 2 -37
-5 -3 -8 -8 -7 -19 3 -8 8 -19 13 -25 11 -7 -2 -19 3 -27 12 -17 16 -32 21
-23 7 4 -8 -13 -8 -71 0 -24 3 -3 11 35 15 20 2 47 5 60 8 14 3 22 1 22 -7 0
-8 5 -6 11 5 12 20 21 23 13 4z m56 9 c0 -2 -7 -7 -16 -10 -8 -3 -12 -2 -9 4
6 10 25 14 25 6z m65 -5 c3 -6 -6 -8 -22 -5 -37 7 -42 14 -10 14 14 0 28 -4
32 -9z m245 -16 c0 -8 -9 -15 -20 -15 -20 0 -26 11 -13 23 12 13 33 7 33 -8z
m1179 6 c42 -1 52 -4 48 -15 -4 -9 -1 -14 6 -12 7 1 9 1 4 -1 -4 -3 -5 -9 -2
-14 4 -5 -1 -6 -10 -2 -10 3 -21 0 -26 -8 -7 -11 -9 -11 -9 4 0 9 5 17 10 17
6 0 10 5 10 10 0 6 -24 10 -52 9 -42 -1 -48 -3 -28 -9 14 -4 18 -9 10 -10 -11
-1 -10 -3 4 -9 33 -13 -7 -41 -62 -43 l-47 -1 45 -6 c28 -4 50 -2 57 5 13 13
170 17 177 5 3 -4 -9 -6 -27 -4 -27 2 -28 1 -8 -5 19 -6 21 -9 10 -19 -8 -6
-23 -13 -34 -16 -16 -5 -14 -5 5 -4 27 1 70 -18 70 -32 0 -4 -25 1 -56 11 -40
14 -60 16 -67 9 -6 -6 -23 -11 -37 -11 -14 0 -31 -5 -38 -12 -9 -9 -12 -8 -12
5 0 16 20 21 67 20 7 -1 10 3 7 8 -3 5 -26 7 -52 4 -32 -3 -42 -2 -32 5 13 8
13 10 -2 10 -9 0 -19 -4 -22 -9 -7 -11 -46 -2 -46 10 0 5 -5 9 -11 9 -5 0 -7
-4 -4 -10 7 -11 -8 -14 -18 -4 -9 9 51 56 63 49 5 -3 10 -2 10 4 0 5 6 11 13
14 6 2 2 2 -10 0 -17 -2 -21 1 -17 12 4 8 13 15 22 15 14 0 13 2 -2 13 -16 11
-14 13 11 11 15 -1 52 -3 82 -3z m312 -5 c-7 -8 -21 -12 -33 -8 -21 5 -21 6
-2 13 33 13 48 11 35 -5z m-2136 -6 c-3 -5 -12 -10 -18 -10 -7 0 -6 4 3 10 19
12 23 12 15 0z m2179 4 c23 -9 20 -23 -4 -17 -11 3 -20 9 -20 14 0 11 3 11 24
3z m136 2 c0 -3 -4 -8 -10 -11 -5 -3 -10 -1 -10 4 0 6 5 11 10 11 6 0 10 -2
10 -4z m-2443 -12 c-3 -3 -12 -4 -19 -1 -8 3 -5 6 6 6 11 1 17 -2 13 -5z m242
-7 c8 -10 7 -14 -2 -14 -8 0 -14 6 -14 14 0 7 1 13 2 13 2 0 8 -6 14 -13z
m2247 -5 c-10 -2 -22 0 -28 6 -6 6 0 7 19 4 21 -5 23 -7 9 -10z m-2396 -7 c0
-1 -14 -5 -32 -7 -27 -4 -29 -3 -14 8 15 10 46 10 46 -1z m75 8 c-11 -3 -26
-10 -32 -15 -8 -6 -13 -7 -13 -1 0 16 12 23 39 22 21 -1 22 -2 6 -6z m981 -9
c-3 -8 -2 -12 4 -9 6 3 10 2 10 -4 0 -15 -18 -23 -25 -11 -7 11 -87 6 -106 -6
-5 -3 -4 6 2 19 10 22 18 25 66 26 45 0 54 -2 49 -15z m804 6 c0 -5 -2 -10 -4
-10 -3 0 -8 5 -11 10 -3 6 -1 10 4 10 6 0 11 -4 11 -10z m109 -6 c6 4 11 2 11
-3 0 -6 -11 -11 -25 -11 -18 0 -23 4 -18 16 4 11 8 12 13 4 4 -7 13 -9 19 -6z
m81 1 c24 -13 24 -14 -15 -10 -49 4 -47 3 -40 15 8 14 25 12 55 -5z m-1350 -5
c8 -5 11 -12 7 -17 -5 -4 -12 -1 -17 7 -6 9 -10 10 -10 3 0 -6 -9 -9 -20 -6
-11 3 -20 9 -20 14 0 12 41 11 60 -1z m1410 0 c0 -5 -2 -10 -4 -10 -3 0 -8 5
-11 10 -3 6 -1 10 4 10 6 0 11 -4 11 -10z m347 -22 c-3 -7 -5 -2 -5 12 0 14 2
19 5 13 2 -7 2 -19 0 -25z m-2537 17 c0 -7 -30 -13 -34 -7 -3 4 4 9 15 9 10 1
19 0 19 -2z m2340 -15 c-6 -11 -13 -20 -15 -20 -3 0 -5 9 -5 20 0 11 7 20 15
20 13 0 14 -4 5 -20z m-815 0 c-3 -5 1 -10 9 -10 9 0 16 5 16 11 0 5 5 7 11 3
17 -10 -10 -24 -48 -24 -20 0 -33 5 -33 13 0 8 -4 7 -10 -3 -5 -8 -10 -10 -10
-4 0 17 11 24 42 24 17 0 27 -4 23 -10z m985 -4 c-7 -7 -13 -7 -20 0 -6 6 -3
10 10 10 13 0 16 -4 10 -10z m-231 -41 c1 -7 -2 -7 -7 0 -4 6 -29 8 -57 5 -43
-4 -46 -6 -24 -12 15 -5 29 -14 32 -22 5 -12 2 -12 -21 0 -15 8 -37 14 -50 14
-13 0 -20 4 -17 10 3 6 -2 10 -11 10 -10 0 -15 3 -11 6 3 4 38 6 77 6 58 0 70
3 71 16 0 14 2 13 9 -3 5 -11 9 -24 9 -30z m172 15 c18 0 28 -4 24 -10 -4 -6
-10 -8 -15 -5 -13 8 -41 -6 -33 -18 3 -6 1 -7 -5 -3 -6 4 -9 13 -6 20 3 7 -2
16 -10 19 -9 4 -16 11 -16 17 0 6 7 4 16 -4 8 -9 29 -16 45 -16z m-2398 13
c-7 -2 -19 -2 -25 0 -7 3 -2 5 12 5 14 0 19 -2 13 -5z m617 -3 c0 -5 -2 -10
-4 -10 -3 0 -8 5 -11 10 -3 6 -1 10 4 10 6 0 11 -4 11 -10z m1547 4 c-3 -3
-12 -4 -19 -1 -8 3 -5 6 6 6 11 1 17 -2 13 -5z m-1637 -14 c-11 -7 -11 -10 -2
-10 10 0 10 -3 0 -14 -11 -13 -14 -13 -24 -1 -6 8 -13 14 -15 12 -2 -1 2 4 10
11 8 6 22 12 30 12 14 0 14 -1 1 -10z m937 -6 c-3 -3 -12 -4 -19 -1 -8 3 -5 6
6 6 11 1 17 -2 13 -5z m880 -8 c3 -3 -12 -6 -35 -6 -23 0 -42 3 -42 8 0 9 68
8 77 -2z m-2458 -27 c-11 -7 -11 -9 -1 -9 7 0 10 -4 7 -10 -4 -6 -11 -5 -19 2
-14 13 2 40 18 31 4 -3 2 -9 -5 -14z m2191 1 l25 -8 -24 -1 c-23 -1 -23 -1 -4
-18 10 -10 12 -14 3 -8 -53 33 -54 52 0 35z m133 3 c-7 -2 -19 -2 -25 0 -7 3
-2 5 12 5 14 0 19 -2 13 -5z m-2109 -15 c-3 -4 -11 -5 -19 -1 -21 7 -19 12 4
10 11 0 18 -5 15 -9z m1682 -11 c8 3 14 0 14 -6 0 -6 -20 -10 -50 -10 -43 1
-48 3 -33 14 10 7 21 11 25 9 4 -2 10 1 15 8 6 10 8 9 11 -4 2 -10 9 -15 18
-11z m-1536 1 c0 -4 -9 -8 -20 -8 -11 0 -20 4 -20 8 0 4 9 8 20 8 11 0 20 -4
20 -8z m1435 -16 c-3 -3 -11 0 -18 7 -9 10 -8 11 6 5 10 -3 15 -9 12 -12z
m260 -10 c-8 -8 -25 10 -19 20 4 6 9 5 15 -3 4 -7 6 -15 4 -17z m364 19 c9 -6
10 -11 2 -15 -6 -4 -11 -2 -11 4 0 6 -4 8 -10 5 -5 -3 -10 -1 -10 4 0 13 10
14 29 2z m-2259 -17 c0 -2 -7 -4 -15 -4 -8 0 -15 4 -15 10 0 5 7 7 15 4 8 -4
15 -8 15 -10z m102 -8 c12 -19 -12 -19 -26 -1 -8 11 -18 15 -26 10 -9 -5 -11
-4 -6 4 9 13 47 5 58 -13z m1438 14 c0 -5 -4 -10 -10 -10 -5 0 -10 5 -10 10 0
6 5 10 10 10 6 0 10 -4 10 -10z m425 0 c3 -5 2 -10 -4 -10 -5 0 -13 5 -16 10
-3 6 -2 10 4 10 5 0 13 -4 16 -10z m120 0 c3 -5 -1 -10 -10 -10 -9 0 -13 5
-10 10 3 6 8 10 10 10 2 0 7 -4 10 -10z m-2242 -7 c-7 -2 -19 -2 -25 0 -7 3
-2 5 12 5 14 0 19 -2 13 -5z m294 1 c-3 -3 -12 -4 -19 -1 -8 3 -5 6 6 6 11 1
17 -2 13 -5z m1310 0 c-3 -3 -12 -4 -19 -1 -8 3 -5 6 6 6 11 1 17 -2 13 -5z
m56 -1 c-7 -2 -21 -2 -30 0 -10 3 -4 5 12 5 17 0 24 -2 18 -5z m-130 -10 c-13
-2 -33 -2 -45 0 -13 2 -3 4 22 4 25 0 35 -2 23 -4z m930 0 c-7 -2 -19 -2 -25
0 -7 3 -2 5 12 5 14 0 19 -2 13 -5z m-2238 -13 c-3 -5 2 -10 11 -10 10 0 15
-2 12 -5 -3 -3 -20 -2 -39 2 -33 7 -33 7 -9 14 14 4 26 7 28 8 2 1 0 -3 -3 -9z
m203 3 c-27 -2 -69 -2 -95 0 -27 2 -5 3 47 3 52 0 74 -1 48 -3z m870 -14 c-2
-6 6 -13 17 -14 87 -12 122 -19 135 -27 16 -10 -139 -4 -197 8 -40 8 -44 27
-5 22 17 -2 26 2 25 10 -2 6 4 12 12 12 8 0 14 -5 13 -11z m156 -10 c5 -4 -10
-7 -32 -6 -23 1 -42 4 -42 8 0 4 -9 5 -20 2 -11 -3 -20 0 -20 6 0 13 98 5 114
-10z m51 5 c8 -3 15 -1 15 5 0 6 10 11 23 11 16 0 18 -3 8 -9 -18 -12 -5 -31
22 -32 l22 0 -22 -9 c-22 -9 -73 7 -73 23 0 4 -6 7 -14 7 -8 0 -18 5 -22 12
-5 8 -2 9 9 5 10 -4 24 -10 32 -13z m942 10 c-3 -3 -12 -4 -19 -1 -8 3 -5 6 6
6 11 1 17 -2 13 -5z m168 -4 c3 -5 -1 -10 -10 -10 -9 0 -13 5 -10 10 3 6 8 10
10 10 2 0 7 -4 10 -10z m-2221 -13 l51 1 -43 -7 c-51 -9 -110 -2 -91 10 7 4
17 5 23 2 5 -3 32 -6 60 -6z m301 3 c-3 -5 -10 -10 -16 -10 -5 0 -9 5 -9 10 0
6 7 10 16 10 8 0 12 -4 9 -10z m70 0 c3 -5 1 -10 -4 -10 -6 0 -11 5 -11 10 0
6 2 10 4 10 3 0 8 -4 11 -10z m229 2 c3 -5 -1 -9 -9 -9 -8 0 -15 4 -15 9 0 4
4 8 9 8 6 0 12 -4 15 -8z m1556 -3 c11 -7 1 -8 -35 -3 -27 4 -52 8 -54 10 -10
9 76 3 89 -7z m-2063 -5 c-3 -3 -12 -4 -19 -1 -8 3 -5 6 6 6 11 1 17 -2 13 -5z
m66 -1 c-7 -2 -10 -10 -7 -17 3 -8 -2 -16 -12 -20 -11 -4 -15 -2 -11 8 3 7 1
18 -5 24 -6 6 0 9 19 9 15 0 23 -2 16 -4z m-266 -9 c-3 -3 -12 -4 -19 -1 -8 3
-5 6 6 6 11 1 17 -2 13 -5z m2198 -4 c3 -5 2 -10 -4 -10 -5 0 -13 5 -16 10 -3
6 -2 10 4 10 5 0 13 -4 16 -10z m118 3 c-7 -2 -19 -2 -25 0 -7 3 -2 5 12 5 14
0 19 -2 13 -5z m-2268 -29 c-23 -17 -35 -17 -58 1 -18 13 -17 14 5 17 13 2 34
2 47 -1 23 -4 23 -5 6 -17z m168 19 c-7 -2 -19 -2 -25 0 -7 3 -2 5 12 5 14 0
19 -2 13 -5z m-108 -13 c13 -6 15 -9 5 -9 -8 0 -22 4 -30 9 -18 12 -2 12 25 0z
m1515 2 c0 -4 -5 -13 -12 -20 -13 -13 -8 -15 16 -6 9 3 16 12 16 20 0 8 5 14
10 14 14 0 13 -7 -6 -35 -9 -14 -22 -21 -30 -18 -10 4 -12 0 -8 -11 8 -22 -19
-21 -37 1 -10 11 -10 14 -1 9 7 -4 12 -2 12 5 0 6 -8 9 -20 6 -31 -8 -24 3 10
14 17 6 30 15 30 20 0 5 5 9 10 9 6 0 10 -4 10 -8z m-1681 -16 c9 -11 6 -15
-16 -19 -14 -3 -34 0 -43 5 -12 8 -27 5 -56 -10 -27 -14 -46 -17 -61 -11 -14
5 -23 5 -23 -1 0 -6 -15 -9 -32 -9 -31 2 -31 2 -5 6 15 2 27 9 27 14 0 6 15
10 33 9 55 -3 67 -1 67 15 0 20 93 21 109 1z m265 -7 c-5 -8 8 -9 45 -4 36 5
51 3 51 -5 0 -7 6 -5 16 4 18 18 24 19 42 7 11 -6 11 -10 0 -18 -20 -16 -82
-28 -74 -14 5 7 -2 11 -16 11 -19 0 -20 -2 -8 -11 11 -7 4 -8 -25 -3 -36 7
-39 6 -26 -9 12 -15 10 -17 -18 -17 -24 0 -31 4 -31 19 0 25 -21 32 -62 20
-43 -12 -48 -11 -23 4 11 6 45 14 75 18 30 3 56 7 58 8 2 0 0 -4 -4 -10z
m1480 -7 c3 -5 -1 -9 -9 -9 -8 0 -15 4 -15 9 0 4 4 8 9 8 6 0 12 -4 15 -8z
m-1541 -27 c1 -6 -11 -11 -26 -13 -23 -3 -26 -6 -16 -18 6 -8 24 -14 40 -14
16 0 29 -4 29 -10 0 -11 -11 -13 -52 -10 -16 1 -28 -3 -28 -8 0 -13 -56 -35
-70 -27 -5 3 -8 11 -5 16 6 9 -5 12 -40 10 -11 0 -2 6 19 14 22 9 44 11 48 7
5 -5 21 -7 36 -4 l27 5 -34 12 -34 11 44 22 c46 22 59 23 62 7z m-128 -25 c-3
-5 -11 -10 -16 -10 -6 0 -7 5 -4 10 3 6 11 10 16 10 6 0 7 -4 4 -10z m-265
-10 c0 -5 -4 -10 -9 -10 -6 0 -13 5 -16 10 -3 6 1 10 9 10 9 0 16 -4 16 -10z
m780 6 c0 -11 -19 -15 -25 -6 -3 5 1 10 9 10 9 0 16 -2 16 -4z m1337 -22 c-3
-3 -12 -4 -19 -1 -8 3 -5 6 6 6 11 1 17 -2 13 -5z m-707 -45 c0 -6 -4 -8 -9
-4 -5 3 -12 1 -16 -5 -4 -7 -12 -7 -25 0 -10 5 -26 7 -34 4 -9 -3 -16 -1 -16
4 0 6 19 12 43 14 47 4 57 1 57 -13z m632 -34 c0 -5 -5 -11 -11 -13 -6 -2 -11
4 -11 13 0 9 5 15 11 13 6 -2 11 -8 11 -13z m-1977 -15 c25 -11 96 -24 113
-21 6 1 12 -3 12 -8 0 -16 -69 -25 -95 -13 -13 6 -32 8 -44 5 -12 -3 -34 3
-53 16 -23 14 -27 21 -15 21 9 0 17 4 17 9 0 10 31 5 65 -9z m125 5 c0 -8 -4
-15 -9 -15 -5 0 -14 7 -21 15 -10 13 -9 15 9 15 12 0 21 -6 21 -15z m49 -21
c-13 -7 -28 -10 -33 -7 -5 3 2 12 15 19 13 7 28 10 33 7 5 -3 -2 -12 -15 -19z
m658 20 c19 -5 21 -9 12 -26 -6 -11 -17 -17 -24 -14 -8 3 -17 1 -20 -4 -4 -6
-20 -10 -38 -10 l-31 0 34 30 c39 33 37 32 67 24z m1117 -13 c9 -15 -21 -20
-39 -8 -14 11 -13 13 9 15 14 1 27 -2 30 -7z m349 2 c-7 -2 -19 -2 -25 0 -7 3
-2 5 12 5 14 0 19 -2 13 -5z m-755 -20 c2 -8 -5 -13 -17 -13 -21 0 -35 13 -24
24 10 10 36 3 41 -11z m-668 -17 c0 -11 -19 -15 -25 -6 -3 5 1 10 9 10 9 0 16
-2 16 -4z"/>
<path d="M229 1359 c-10 -6 -7 -9 14 -9 29 0 35 5 14 13 -8 3 -20 1 -28 -4z"/>
<path d="M670 1515 c0 -10 29 -24 34 -17 3 6 -3 12 -14 15 -11 3 -20 4 -20 2z"/>
<path d="M1943 1263 c-14 -16 -29 -27 -34 -25 -5 1 -9 -7 -9 -18 0 -12 7 -20
17 -20 15 0 15 -1 -2 -13 -17 -13 -16 -15 15 -25 43 -16 50 -15 50 3 0 8 -4
15 -10 15 -5 0 -10 5 -10 11 0 5 4 8 9 5 5 -4 7 3 4 14 -6 22 12 28 21 8 4 -7
4 -2 1 12 -2 14 -5 33 -5 43 0 25 -17 21 -47 -10z m9 -45 c-7 -7 -12 -8 -12
-2 0 14 12 26 19 19 2 -3 -1 -11 -7 -17z"/>
<path d="M2011 1263 c7 -12 15 -20 18 -17 3 2 -3 12 -13 22 -17 16 -18 16 -5
-5z"/>
<path d="M2135 1220 c-4 -6 -1 -18 7 -27 11 -15 11 -16 -4 -10 -14 5 -18 1
-18 -21 0 -19 8 -32 29 -43 l28 -17 11 34 c8 27 7 34 -4 34 -8 0 -14 6 -14 13
-1 21 -27 50 -35 37z"/>
<path d="M1480 1210 c-8 -5 -11 -12 -7 -16 4 -4 13 -2 19 4 15 15 7 24 -12 12z"/>
<path d="M1655 1068 c4 -51 10 -96 14 -100 3 -3 63 -10 134 -14 100 -5 127 -4
127 6 0 9 -12 11 -44 7 l-44 -6 -7 39 c-6 35 -3 43 17 60 12 11 29 19 36 20
21 0 3 20 -19 20 -10 0 -19 -7 -19 -15 0 -8 -7 -15 -15 -15 -15 0 -21 35 -7
44 4 2 30 6 57 7 44 3 50 1 51 -16 0 -11 3 -27 7 -35 3 -8 10 -38 15 -67 8
-44 7 -53 -7 -56 -9 -3 1 -5 22 -6 20 0 37 2 37 5 0 3 -14 47 -31 98 l-31 92
-137 12 c-75 7 -142 12 -149 12 -11 0 -12 -19 -7 -92z"/>
<path d="M1974 1114 c3 -9 6 -19 6 -23 0 -4 6 -8 14 -8 11 0 12 5 3 24 -11 25
-33 32 -23 7z"/>
<path d="M230 1096 c0 -4 12 -22 26 -40 18 -22 33 -32 44 -29 27 7 17 36 -16
46 -16 5 -35 14 -41 20 -7 5 -13 6 -13 3z"/>
<path d="M130 1073 c0 -4 5 -15 10 -23 8 -13 10 -13 10 2 0 9 -4 20 -10 23 -5
3 -10 3 -10 -2z"/>
<path d="M136 981 c-4 -7 -5 -15 -2 -18 9 -9 19 4 14 18 -4 11 -6 11 -12 0z"/>
<path d="M166 975 c4 -8 10 -15 15 -15 4 0 6 7 3 15 -4 8 -10 15 -15 15 -4 0
-6 -7 -3 -15z"/>
<path d="M320 825 c0 -8 4 -15 10 -15 5 0 7 7 4 15 -4 8 -8 15 -10 15 -2 0 -4
-7 -4 -15z"/>
<path d="M505 800 c-3 -5 1 -10 10 -10 9 0 13 5 10 10 -3 6 -8 10 -10 10 -2 0
-7 -4 -10 -10z"/>
<path d="M608 803 c7 -3 16 -2 19 1 4 3 -2 6 -13 5 -11 0 -14 -3 -6 -6z"/>
<path d="M2049 439 c-11 -7 -8 -9 9 -10 12 -1 27 -2 34 -3 6 -1 13 4 15 9 4
13 -40 16 -58 4z"/>
<path d="M1936 1813 c13 -14 14 -18 3 -21 -42 -11 -42 -12 -27 -30 9 -9 18
-24 21 -32 3 -8 6 0 6 18 1 35 26 42 26 7 0 -13 10 -19 35 -22 19 -2 37 -8 38
-13 2 -6 12 -10 23 -10 16 0 14 5 -13 30 -17 17 -42 33 -55 36 -16 4 -23 13
-23 30 0 19 -5 24 -26 24 -24 0 -24 -1 -8 -17z"/>
<path d="M2328 1823 c7 -3 16 -2 19 1 4 3 -2 6 -13 5 -11 0 -14 -3 -6 -6z"/>
<path d="M2550 1821 c0 -6 5 -13 10 -16 6 -3 10 1 10 9 0 9 -4 16 -10 16 -5 0
-10 -4 -10 -9z"/>
<path d="M2620 1805 c0 -9 9 -15 21 -15 18 0 19 2 9 15 -7 8 -16 15 -21 15 -5
0 -9 -7 -9 -15z"/>
<path d="M2674 1785 c3 -8 1 -15 -5 -15 -6 0 -7 -5 -3 -12 5 -8 2 -9 -9 -5
-10 3 -17 2 -17 -2 0 -9 24 -21 39 -21 4 0 8 6 8 13 0 6 2 17 3 22 5 20 0 35
-11 35 -6 0 -9 -7 -5 -15z"/>
<path d="M2278 1773 c7 -3 16 -2 19 1 4 3 -2 6 -13 5 -11 0 -14 -3 -6 -6z"/>
<path d="M1775 1750 c-19 -7 -19 -8 -2 -15 19 -8 31 -2 26 13 -2 5 -13 6 -24
2z"/>
<path d="M110 1715 c7 -8 17 -15 22 -15 6 0 5 7 -2 15 -7 8 -17 15 -22 15 -6
0 -5 -7 2 -15z"/>
<path d="M2720 1721 c0 -5 -3 -16 -6 -25 -4 -12 0 -16 15 -16 16 0 21 6 21 25
0 16 -6 25 -15 25 -8 0 -15 -4 -15 -9z"/>
<path d="M1960 1700 c0 -5 5 -10 10 -10 6 0 10 5 10 10 0 6 -4 10 -10 10 -5 0
-10 -4 -10 -10z"/>
<path d="M1904 1669 c-4 -8 -3 -9 4 -5 7 4 12 1 12 -8 0 -9 5 -16 11 -16 14 0
7 32 -8 37 -6 2 -15 -1 -19 -8z"/>
<path d="M2109 1657 c-1 -4 -2 -11 -3 -16 0 -5 -4 -13 -8 -17 -14 -13 -8 -26
8 -20 10 4 25 -3 40 -19 20 -22 25 -24 30 -11 3 9 14 16 23 17 10 0 12 2 3 6
-7 3 -19 0 -26 -7 -11 -9 -16 -6 -21 11 -8 24 -44 68 -46 56z"/>
<path d="M2706 1635 c-4 -11 2 -15 19 -15 30 0 32 6 6 19 -14 8 -20 7 -25 -4z"/>
<path d="M1933 342 c-13 -2 -23 -8 -23 -13 0 -11 17 -11 44 0 24 9 9 18 -21
13z"/>
<path d="M1170 330 c-12 -8 -11 -10 8 -10 12 0 22 5 22 10 0 13 -11 13 -30 0z"/>
<path d="M1648 323 c7 -3 16 -2 19 1 4 3 -2 6 -13 5 -11 0 -14 -3 -6 -6z"/>
<path d="M2148 323 c7 -3 16 -2 19 1 4 3 -2 6 -13 5 -11 0 -14 -3 -6 -6z"/>
<path d="M2335 281 c12 -6 15 -10 6 -10 -28 -2 1 -15 34 -16 20 -1 36 4 39 12
3 8 -2 13 -13 13 -10 0 -34 2 -52 5 -26 4 -30 3 -14 -4z"/>
<path d="M1678 273 c6 -2 18 -2 25 0 6 3 1 5 -13 5 -14 0 -19 -2 -12 -5z"/>
<path d="M2150 260 c-30 -10 -28 -11 30 -15 25 -2 35 -1 22 2 -12 2 -20 9 -17
14 7 10 0 10 -35 -1z"/>
<path d="M1270 246 c0 -7 9 -16 20 -19 11 -3 20 -4 20 -3 0 1 -9 9 -20 19 -15
13 -20 14 -20 3z"/>
<path d="M2618 253 c7 -3 16 -2 19 1 4 3 -2 6 -13 5 -11 0 -14 -3 -6 -6z"/>
<path d="M2656 251 c-4 -5 4 -7 16 -3 13 3 19 1 15 -5 -5 -7 0 -9 13 -6 11 3
17 9 14 14 -7 12 -51 12 -58 0z"/>
<path d="M2498 243 c6 -2 18 -2 25 0 6 3 1 5 -13 5 -14 0 -19 -2 -12 -5z"/>
<path d="M1623 217 c4 -11 1 -17 -8 -17 -8 0 -15 -4 -15 -10 0 -10 21 -10 30
1 3 3 26 3 51 1 39 -3 46 -7 42 -22 -4 -14 -13 -17 -47 -15 -38 3 -42 1 -44
-22 -2 -25 0 -25 40 -20 27 4 48 14 59 28 16 22 18 22 43 6 24 -16 30 -15 27
5 0 4 6 5 14 2 8 -4 15 -1 15 5 0 6 -6 11 -14 11 -8 0 -16 5 -18 11 -3 8 -10
8 -25 -2 -12 -7 -26 -10 -30 -6 -4 5 -1 12 7 17 23 14 6 22 -55 26 -31 2 -61
7 -67 11 -7 4 -9 0 -5 -10z"/>
<path d="M2098 213 c6 -2 18 -2 25 0 6 3 1 5 -13 5 -14 0 -19 -2 -12 -5z"/>
<path d="M695 200 c3 -5 12 -7 20 -3 21 7 19 13 -6 13 -11 0 -18 -4 -14 -10z"/>
<path d="M1148 173 c6 -2 18 -2 25 0 6 3 1 5 -13 5 -14 0 -19 -2 -12 -5z"/>
<path d="M208 153 c7 -3 16 -2 19 1 4 3 -2 6 -13 5 -11 0 -14 -3 -6 -6z"/>
<path d="M45 140 c3 -5 10 -10 16 -10 5 0 9 5 9 10 0 6 -7 10 -16 10 -8 0 -12
-4 -9 -10z"/>
<path d="M1842 137 c-44 -20 -19 -32 28 -14 8 3 22 7 30 10 9 2 5 6 -11 9 -14
2 -35 0 -47 -5z"/>
<path d="M540 130 c0 -5 7 -10 15 -10 8 0 15 5 15 10 0 6 -7 10 -15 10 -8 0
-15 -4 -15 -10z"/>
<path d="M1030 131 c0 -5 5 -13 10 -16 6 -3 10 -2 10 4 0 5 -4 13 -10 16 -5 3
-10 2 -10 -4z"/>
<path d="M2590 120 c0 -5 7 -10 15 -10 8 0 15 5 15 10 0 6 -7 10 -15 10 -8 0
-15 -4 -15 -10z"/>
<path d="M798 63 c7 -3 16 -2 19 1 4 3 -2 6 -13 5 -11 0 -14 -3 -6 -6z"/>
<path d="M1933 3 c9 -2 23 -2 30 0 6 3 -1 5 -18 5 -16 0 -22 -2 -12 -5z"/>
<path d="M2728 3 c7 -3 16 -2 19 1 4 3 -2 6 -13 5 -11 0 -14 -3 -6 -6z"/>
</g>
</svg>
